<?xml version="1.0" encoding="utf-8"?>
<!-- Generator: Adobe Illustrator 24.3.0, SVG Export Plug-In . SVG Version: 6.00 Build 0)  -->
<svg version="1.1" id="Layer_1" xmlns="http://www.w3.org/2000/svg" xmlns:xlink="http://www.w3.org/1999/xlink" x="0px" y="0px"
	 viewBox="0 0 102.3 66" style="enable-background:new 0 0 102.3 66;" xml:space="preserve">
<style type="text/css">
	.st0{fill-rule:evenodd;clip-rule:evenodd;fill:#FFFFFF;}
	.st1{fill:#FFFFFF;}
</style>
<polygon class="st0" points="57.5,25.3 62.3,26.5 64.8,4.8 "/>
<path class="st1" d="M68.9,60.1c-3.6,0-10.9-1-18.1-8.3c-3.9-3.9-6.8-3.9-10.5-3.6c-7,0.5-13.6,5.4-13.7,5.5l-4.9,3.6l4.4-4.2
	c0.1-0.1,9.9-9.2,23-5.4l0.9-0.3c0.9-0.3,8.4-1.2,11.8,4.3c3.2,5,9.4,7.6,9.5,7.6l1.1,0.5L71.2,60C71.2,60,70.3,60.1,68.9,60.1z
	 M44.9,47.6c2,0.4,4,1.4,6.4,3.7c7.8,7.8,15.5,8.2,18.5,8.1c-2-1-6.1-3.4-8.6-7.3c-2.3-3.7-6.8-4.3-9.3-4.2c2.3,0.8,6.3,2.8,9.6,7.2
	l2.2,3l-2.7-2.5C55.2,50.3,49.7,48.1,44.9,47.6z M50.9,48.4c1.9,0.7,3.9,1.7,5.9,3.1C54.4,49.6,52.1,48.7,50.9,48.4z"/>
<path class="st0" d="M61.2,55.3c-4.6-6.3-11.1-7.5-11.1-7.5c1-0.4,8.2-1,11.4,4.1c3.3,5.2,9.6,7.7,9.6,7.7s-10,2.1-20.1-8
	c-4-4-7.1-4-10.8-3.7c-7.2,0.6-13.9,5.6-13.9,5.6S42.4,38.1,61.2,55.3"/>
<path class="st0" d="M33.2,54.7L33.2,54.7C33.2,54.7,33.2,54.7,33.2,54.7C33.2,54.7,33.2,54.7,33.2,54.7h-0.1
	c-0.5,0-0.8-0.1-1.1-0.3c-0.2-0.2-0.4-0.6-0.4-1.1h1.7c0,0,0,0.1,0,0.2c0,0.2,0,0.3,0,0.5c0,0.2,0,0.4,0,0.5
	C33.2,54.6,33.2,54.7,33.2,54.7 M33.2,60.1c0,0.4-0.1,0.7-0.4,0.9s-0.6,0.4-1.1,0.4h0c0,0-0.1,0-0.1,0v-6.1h1.7L33.2,60.1L33.2,60.1
	z M28.8,60.1c0,0,0,0,0,0.2c0,0.2-0.1,0.3-0.2,0.5c-0.1,0.1-0.3,0.3-0.5,0.4c-0.2,0.1-0.5,0.2-0.9,0.2v-4.8c0,0,0,0,0-0.2
	c0-0.1,0.1-0.2,0.2-0.4c0.1-0.2,0.3-0.3,0.5-0.4c0.2-0.2,0.5-0.2,0.9-0.2v0.9c0,0,0,0,0-0.2c0-0.1,0.1-0.2,0.2-0.4
	c0.1-0.1,0.2-0.2,0.4-0.4c0.1,0,0.3-0.1,0.5-0.1c0.1,0,0.2,0,0.4,0c0.1,0,0.3,0.1,0.4,0.2c0,0,0,0,0,0.2c0,0.2,0,0.4,0,0.6
	s0,0.4,0,0.6c0,0.2,0,0.3,0,0.4c-0.1-0.1-0.2-0.2-0.4-0.2C30.3,57,30.1,57,30,57c-0.2,0-0.4,0-0.5,0.2c-0.2,0.1-0.4,0.2-0.5,0.4
	c0,0-0.1,0.1-0.2,0.2c0,0,0,0.1,0,0.2V60.1z M22,60.4c0-0.2,0-0.4,0.2-0.5s0.3-0.3,0.6-0.4c0,0,0.1,0,0.2,0c0.1,0,0.2,0,0.2-0.1
	c-0.5,0-1-0.2-1.5-0.5c-0.4-0.2-0.6-0.8-0.6-1.5c0-1,0.4-1.6,1.2-1.7c0.8-0.2,1.6-0.3,2.5-0.3c0,0,0,0,0,0c0,0,0,0,0.1,0h0v0
	c0,0,0,0,0,0c0,0.3,0,0.5-0.2,0.8c-0.2,0.3-0.4,0.4-0.6,0.4h0c0,0,0,0,0,0c0,0,0,0-0.1,0c0,0-0.1,0-0.2,0s0,0-0.1,0c0,0,0,0,0,0
	c-0.2,0-0.4,0-0.5,0.2c-0.2,0-0.2,0.3-0.2,0.6c0,0.2,0,0.4,0.2,0.5c0.2,0.1,0.4,0.2,0.6,0.2c0,0,0.1,0,0.2,0c0.1,0,0.2,0,0.2,0
	c0,0,0,0,0,0c0,0,0,0,0,0c0.4,0,0.6-0.1,0.9-0.2c0.3-0.1,0.5-0.4,0.6-0.8c0,0,0,0.1,0,0.2c0,0,0,0.1,0,0.2c0,0.6-0.1,1-0.3,1.3
	c-0.2,0.2-0.4,0.4-0.6,0.5c-0.1,0-0.2,0.1-0.2,0.1c-0.1,0-0.2,0-0.2,0c-0.1,0-0.2,0.1-0.3,0.2c0,0-0.1,0.1-0.1,0.2c0,0,0,0,0,0.1
	l0,0c0.1,0,0.2,0.1,0.4,0.2c0.2,0,0.4,0.1,0.5,0.2c0.3,0.2,0.5,0.4,0.8,0.6c0.2,0.3,0.4,0.7,0.4,1.3c0,0.7-0.3,1.2-0.8,1.6
	c-0.6,0.4-1.2,0.5-1.9,0.5c0,0,0,0,0,0c-0.1,0-0.2,0-0.3,0c0,0-0.2,0-0.2,0c-0.5,0-0.9-0.2-1.2-0.4c-0.4-0.2-0.6-0.5-0.6-1v0
	c0,0,0,0,0,0c0-0.4,0.2-0.8,0.6-1c0.3-0.3,0.7-0.4,1.1-0.4h0c0,0.1-0.1,0.2-0.2,0.3c0,0,0,0.2,0,0.3c0,0,0,0,0,0.1c0,0,0,0.1,0,0.2
	c0,0.2,0,0.4,0.2,0.5c0.2,0.2,0.4,0.2,0.8,0.2c0.4,0,0.7,0,0.8-0.2c0.1-0.2,0.2-0.4,0.2-0.5c0,0,0,0,0,0s0,0,0,0c0,0,0,0,0,0v0
	c0-0.3-0.1-0.5-0.4-0.6c-0.2-0.2-0.5-0.2-0.8-0.3h0c-0.3-0.1-0.6-0.2-0.8-0.4C22.1,60.9,22,60.7,22,60.4L22,60.4L22,60.4z
	 M17.1,54.9l-1,3.3h2L17.1,54.9z M15.6,59.7l-0.6,1.7c-0.4-0.1-0.6-0.2-0.8-0.5c-0.2-0.2-0.3-0.5-0.3-0.8c0-0.1,0-0.2,0-0.2
	c0-0.1,0-0.2,0-0.2c0-0.1,0-0.2,0-0.4c0-0.1,0-0.2,0-0.3c0,0,0.1-0.3,0.4-0.9c0.2-0.5,0.4-1.2,0.6-1.9c0.2-0.6,0.5-1.3,0.6-1.8
	c0.2-0.6,0.4-0.8,0.4-0.9c0,0,0,0,0-0.2c0-0.2,0.2-0.4,0.3-0.6c0.2-0.2,0.4-0.4,0.6-0.6c0.3-0.2,0.6-0.3,1.1-0.3l2.5,7.1
	c0,0.2,0.1,0.3,0.1,0.5c0,0.2,0,0.4,0,0.5c0,0.4-0.1,0.6-0.3,0.9c-0.2,0.3-0.6,0.5-1,0.6l-0.6-1.7H15.6z"/>
<path class="st0" d="M49.9,58.2l-1.3-2.7c0,0,0,0,0.1,0c0,0,0,0,0,0c0.1,0,0.2-0.1,0.4-0.2c0.1,0,0.2,0,0.4,0c0,0,0,0,0,0
	c0,0,0,0,0,0c0.3,0,0.5,0.2,0.7,0.4c0.1,0.2,0.2,0.5,0.4,0.8c0,0,0,0.2,0.1,0.2c0,0.1,0,0.2,0.1,0.3c0,0,0,0,0,0c0,0,0,0,0,0
	l1.3-1.9c0.2,0.2,0.4,0.4,0.5,0.6c0.1,0.2,0.2,0.4,0.2,0.6c0,0,0,0,0,0c0,0.1,0,0.3-0.1,0.4c0,0.2-0.1,0.4-0.2,0.5
	c0,0,0,0.1-0.1,0.2c0,0,0,0.1-0.1,0.2c-0.1,0.2-0.2,0.3-0.4,0.5c0,0.1-0.2,0.2-0.2,0.3c0,0,0.1,0.2,0.2,0.5c0.1,0.2,0.2,0.5,0.4,0.8
	c0,0,0,0,0,0c0.2,0.3,0.3,0.6,0.5,0.9c0.1,0.3,0.2,0.4,0.2,0.4c0,0-0.1,0.1-0.2,0.2c0,0-0.1,0.1-0.2,0.2c-0.1,0-0.2,0.1-0.3,0.1
	c0,0-0.2,0-0.3,0c0,0,0,0-0.1,0c0,0-0.1,0-0.1,0c-0.2,0-0.4-0.2-0.5-0.5c-0.2-0.2-0.3-0.5-0.4-0.8c0,0,0,0,0,0c0,0,0,0,0,0
	c0-0.1,0-0.2,0-0.2c0-0.1,0-0.2-0.1-0.2l-1.1,1.9c-0.2-0.1-0.4-0.2-0.6-0.4c-0.1-0.1-0.2-0.4-0.3-0.6v0c0,0,0,0,0,0c0,0,0,0,0,0
	c0,0,0,0,0-0.1c0-0.2,0-0.5,0.2-0.8c0.2-0.2,0.4-0.5,0.5-0.7c0.1-0.1,0.2-0.2,0.2-0.3C49.8,58.4,49.8,58.3,49.9,58.2 M44.9,57.9h1.6
	v0v0v0c0,0,0,0,0,0c0-0.2,0-0.5-0.2-0.6c-0.1-0.2-0.3-0.3-0.6-0.3c-0.2,0-0.4,0-0.5,0.2c-0.1,0.2-0.2,0.4-0.2,0.6v0v0
	C44.9,57.8,44.9,57.8,44.9,57.9L44.9,57.9z M45.9,60c0,0,0.2,0,0.3,0c0,0,0.2,0,0.3,0c0,0,0.1,0,0.2,0c0,0,0.1,0,0.2,0
	c0.2,0,0.4-0.1,0.6-0.2c0.2-0.1,0.4-0.2,0.5-0.5c0,0,0,0,0,0.1c0,0,0,0,0,0c0,0,0,0,0,0v0c0,0.5-0.2,0.9-0.6,1.3
	c-0.4,0.4-0.9,0.6-1.4,0.6c-1,0-1.7-0.4-2.2-0.9c-0.4-0.6-0.6-1.5-0.6-2.5c0-0.8,0.2-1.5,0.6-2.1c0.4-0.6,1-0.9,1.9-0.9
	c1,0,1.7,0.4,2,1c0.4,0.7,0.5,1.5,0.6,2.3c0,0,0,0.2,0,0.2c0,0,0,0.1,0,0.2h-3.3c0,0.4,0.1,0.6,0.2,0.8C45.3,59.8,45.5,59.9,45.9,60
	z M42.1,52.6v8.8c-0.4,0-0.6,0-0.9-0.2c-0.2-0.1-0.4-0.3-0.5-0.4c-0.1-0.2-0.2-0.3-0.3-0.5c0-0.1,0-0.2,0-0.2s0-0.5,0-1.4s0-2,0-3.1
	c0-1,0-2,0-2.9s0-1.4,0-1.6c0.5,0,0.8,0,1,0.2c0.2,0.1,0.4,0.3,0.5,0.5c0,0.1,0.1,0.2,0.1,0.4C42.1,52.4,42.1,52.5,42.1,52.6
	C42.1,52.6,42.1,52.6,42.1,52.6C42.1,52.6,42.1,52.6,42.1,52.6z M36.9,59.9L36.9,59.9C36.9,59.9,36.9,59.9,36.9,59.9
	c0.3,0,0.6-0.2,0.7-0.4c0.1-0.3,0.2-0.6,0.2-1c0,0,0,0,0-0.1c0,0,0,0,0,0c0-0.5,0-0.9-0.2-1.2c0-0.3-0.3-0.4-0.6-0.4h0
	c-0.4,0-0.5,0.2-0.6,0.5c0,0.3-0.1,0.7-0.1,1.2s0,0.9,0.1,1.2C36.4,59.7,36.6,59.9,36.9,59.9z M34.3,55.3L34.3,55.3L34.3,55.3
	c0.3,0,0.6,0,0.7,0.1c0.2,0,0.4,0.2,0.5,0.2c0.1,0.1,0.2,0.2,0.2,0.3c0,0.1,0,0.2,0,0.2s0,0,0-0.2c0,0,0.2-0.2,0.3-0.3
	c0.1-0.1,0.2-0.2,0.5-0.3c0.2,0,0.5-0.1,0.8-0.1c0,0,0.1,0,0.2,0c0,0,0,0,0.1,0c0.4,0.1,0.8,0.4,1.1,0.8c0.4,0.4,0.5,0.8,0.6,1.3v0
	v2c0,0,0,0.1,0,0.2c0,0,0,0.1,0,0.2c0,0.4-0.3,0.8-0.6,1.2c-0.4,0.4-0.7,0.5-1,0.5s-0.6,0-0.8-0.1c-0.2,0-0.4-0.2-0.6-0.4
	c0,0,0,0-0.1,0c0,0,0-0.1-0.1-0.1v3.9c-0.5,0-0.8,0-1.1-0.2c-0.2-0.1-0.4-0.3-0.5-0.5c0,0-0.1-0.2-0.1-0.2c0,0,0-0.2,0-0.2
	c0,0,0-0.2,0-0.5c0-0.4,0-0.8,0-1.3c0-0.4,0-0.7,0-1.1s0-0.8,0-1.2c0-0.9,0-1.7,0-2.5C34.3,56,34.3,55.5,34.3,55.3z"/>
<path class="st0" d="M61.1,60.5c0,0.1,0,0.1,0.1,0.2c0,0,0,0,0.1,0c0.1,0,0.2,0,0.2,0c0,0,0.1,0,0.1-0.2v-0.6c0,0,0-0.1-0.1-0.2
	c0,0,0,0-0.2,0c0,0-0.1,0-0.2,0c0,0,0,0.1,0,0.2L61.1,60.5L61.1,60.5z M62.2,59.9v0.6c0,0.2-0.1,0.4-0.3,0.5
	c-0.2,0.2-0.4,0.2-0.6,0.2c-0.2,0-0.4,0-0.5-0.2c-0.2-0.1-0.3-0.3-0.3-0.5v-0.6c0-0.2,0.1-0.4,0.3-0.5c0.2-0.2,0.4-0.2,0.6-0.2
	c0.2,0,0.4,0,0.5,0.2C62.1,59.5,62.2,59.7,62.2,59.9z M59.7,60.8C59.7,60.8,59.7,60.8,59.7,60.8c0,0.1,0,0.2-0.1,0.2
	c0,0,0,0-0.2,0.1c0,0-0.2,0-0.3,0v-1.5c0,0,0,0,0,0s0-0.1,0-0.2c0,0,0.1,0,0.2-0.1c0.1,0,0.2,0,0.4,0v0.3c0,0,0,0,0,0
	c0,0,0,0,0.1-0.1c0,0,0,0,0.1-0.1c0,0,0.1,0,0.2,0c0,0,0,0,0.1,0c0,0,0.1,0,0.2,0c0,0,0,0,0,0.1c0,0,0,0.1,0,0.2c0,0,0,0.1,0,0.2
	c0,0,0,0.1,0,0.1c0,0-0.1,0-0.2,0c0,0,0,0-0.1,0c0,0-0.1,0-0.2,0c0,0-0.1,0-0.2,0.1c0,0,0,0,0,0c0,0,0,0,0,0L59.7,60.8L59.7,60.8z
	 M57.4,60.8c0,0,0-0.1,0-0.2c0,0,0.1,0,0.2-0.1c0,0,0,0,0,0c0,0,0,0,0,0c-0.2,0-0.4,0-0.5-0.1c-0.2-0.1-0.2-0.3-0.2-0.5
	c0-0.3,0.1-0.5,0.4-0.6c0.2,0,0.5,0,0.8,0c0,0,0,0,0,0h0c0,0.1,0,0.2,0,0.3c0,0-0.1,0.1-0.2,0.1c0,0,0,0,0,0s0,0,0,0c0,0,0,0,0,0
	c0,0-0.2,0-0.2,0c0,0,0,0.1,0,0.2v0c0,0,0,0.1,0.1,0.1c0,0,0.1,0,0.2,0h0h0c0,0,0,0,0,0c0.1,0,0.2,0,0.3,0c0.1,0,0.2-0.1,0.2-0.2v0
	v0c0,0.2,0,0.4,0,0.4c0,0.1-0.1,0.2-0.2,0.2c0,0,0,0,0,0c0,0,0,0,0,0c0,0-0.1,0-0.1,0c0,0,0,0,0,0.1c0,0,0,0,0,0v0c0,0,0,0,0.1,0
	c0,0,0.1,0,0.2,0c0,0,0.2,0.1,0.2,0.2c0,0,0.1,0.2,0.1,0.4c0,0.2-0.1,0.4-0.3,0.5c-0.2,0.1-0.4,0.2-0.6,0.2c0,0,0,0,0,0c0,0,0,0,0,0
	c0,0,0,0-0.1,0c-0.1,0-0.2-0.1-0.4-0.2c-0.1,0-0.2-0.2-0.2-0.3c0,0,0,0,0,0c0-0.1,0-0.2,0.2-0.4c0.1,0,0.2-0.1,0.4-0.1
	c0,0,0,0,0,0.1v0c0,0,0,0,0,0c0,0,0,0,0,0c0,0,0,0.1,0.1,0.2c0,0,0.1,0,0.2,0s0.2,0,0.3,0c0,0,0-0.1,0-0.2c0,0,0,0,0,0c0,0,0,0,0,0
	c0-0.1,0-0.2-0.1-0.2c0,0-0.2,0-0.3,0c-0.1,0-0.2,0-0.3-0.1C57.5,61,57.4,60.9,57.4,60.8z M55.8,59.1l-0.3,1.1h0.7L55.8,59.1z
	 M55.3,60.7l-0.2,0.6c-0.1,0-0.2-0.1-0.3-0.2c0-0.1,0-0.2-0.1-0.3v0v0c0,0,0-0.1,0-0.1c0,0,0,0,0-0.1c0,0,0,0,0-0.3
	c0.1-0.2,0.2-0.4,0.2-0.6c0.1-0.2,0.2-0.4,0.2-0.6c0-0.2,0.1-0.2,0.1-0.2s0,0,0-0.1c0,0,0-0.1,0.1-0.2c0,0,0.1-0.1,0.2-0.2
	c0,0,0.2-0.1,0.4-0.1l0.9,2.3c0,0,0,0.1,0,0.2c0,0,0,0.1,0,0.1c0,0.1,0,0.2-0.1,0.3c0,0.1-0.2,0.2-0.4,0.2l-0.2-0.5L55.3,60.7
	L55.3,60.7z"/>
<path class="st0" d="M88.6,14.6V9.5h1.6L91,13l0.9-3.5h1.6v5.1h-1v-4l-1,4h-1l-1-4v4H88.6z M85.4,14.6v-4.1h-1.5V9.5h4v0.9h-1.5v4.2
	L85.4,14.6L85.4,14.6z"/>
<g>
	<path class="st0" d="M69.5,30.1c-4.9-4-13.2-8.3-25.1-5.7c-12.1,2.6-17.7,11-20.3,18.2c2.9-7.1,9-14.7,20.4-16.4
		c16.1-2.3,24.4,8.2,27.3,12.8c0,0,0.1,0.1,0.1,0.1c3.1,0.6,5.5,2.7,6.6,4C77.9,40.2,75.1,34.7,69.5,30.1z"/>
	<path class="st0" d="M22,53.4L22,53.4c0-0.2,0-0.3,0-0.4C22,53.1,22,53.2,22,53.4z"/>
</g>
<path class="st0" d="M78,44.5c-5.1-6.3-13.8-5.4-17.5-4.6c3.4,0.6,11.4,2.7,18.2,9.7l2.6,2.7l-3.1-2.1C57.4,35.6,40.6,40.9,31,46.9
	c3.4-2,7.5-3.9,11.9-4.9c2.3-0.5,4.4-0.9,6.6-0.9c3.6,0,7.3,1.1,12,4.7c15.3,11.7,28.9,9.8,32.9,8.9C91.2,53.7,83.1,50.6,78,44.5z"
	/>
<path class="st1" d="M71.8,38.9c0,0,0.1,0.1,0.1,0.1c2.5,0.5,4.6,2,5.9,3.2C75.4,37.8,67.1,25,51,25c-1.6,0-3.4,0.1-5.2,0.4
	c-4.7,0.8-8.5,2.4-11.5,4.5c2.8-1.8,6.2-3.1,10.2-3.7C60.7,23.9,69,34.4,71.8,38.9z"/>
<g>
	<path class="st0" d="M69.5,30.1c-4.9-4-13.1-8-25.1-5.8c-12.1,2.2-17.7,10.4-20.2,18.3c2.9-7.1,9-14.7,20.4-16.4
		c16.1-2.3,24.4,8.2,27.3,12.8c0,0,0.1,0.1,0.1,0.1c3.1,0.6,5.5,2.7,6.6,4C77.9,40.2,75.1,34.7,69.5,30.1z"/>
	<path class="st0" d="M22,53.4L22,53.4c0-0.2,0-0.3,0-0.4C22,53.1,22,53.2,22,53.4z"/>
</g>
<path class="st0" d="M11.3,45.8l10.9,4.8c0.1-0.9,0.3-1.8,0.4-2.7L11.3,45.8z"/>
<path class="st0" d="M24.1,42.6c0,0,0-0.1,0.1-0.3L3.8,37.3L22.9,47C23.2,45.5,23.6,44,24.1,42.6z"/>
<path class="st0" d="M25.7,38.5l-10.9-3.8l9.8,6.2C24.9,40.2,25.3,39.4,25.7,38.5z"/>
<path class="st0" d="M29.1,33.3L12,22.1l14.4,15.1C27.1,36,28,34.7,29.1,33.3z"/>
<path class="st0" d="M32.1,30.2l-6.5-6.5l5,8C31,31.2,31.5,30.7,32.1,30.2z"/>
<path class="st0" d="M38.2,26.3L25.7,9.3L34,28.7C35.3,27.8,36.7,27,38.2,26.3z"/>
<path class="st0" d="M42.7,24.7l-4.3-9.1l2.2,9.8C41.2,25.2,42,24.9,42.7,24.7z"/>
<path class="st0" d="M48.9,23.8L45.1,3.1l-0.9,21.2C45.7,24.1,47.2,23.9,48.9,23.8z"/>
<path class="st0" d="M66.5,27.9l5.6-10.3l-8,9C64.9,27,65.7,27.4,66.5,27.9z"/>
<path class="st0" d="M68.4,29.2c1.3,1,2.4,2.1,3.4,3.2l11.8-17L68.4,29.2z"/>
<path class="st0" d="M73.1,33.9c0.6,0.8,1.2,1.6,1.8,2.4l9.9-8.8L73.1,33.9z"/>
<path class="st0" d="M75.5,37.3c0.9,1.5,1.6,2.9,2.3,4.3l17-12.2L75.5,37.3z"/>
<path class="st0" d="M78.4,43c0.4,0.9,0.7,1.8,1,2.7l11.4-5L78.4,43z"/>
<g>
	<path class="st1" d="M68.5,43.5c-2.4-1.1-4.5-1.8-6.1-2.2C64.4,41.9,66.4,42.6,68.5,43.5z"/>
	<path class="st1" d="M51,40.8c0.2,0,0.5,0,0.7,0c-0.1,0-0.1,0-0.2,0C51.4,40.8,51.2,40.8,51,40.8z"/>
	<path class="st1" d="M65.3,39.3c0.3,0,0.6,0,0.9,0c-0.1,0-0.3,0-0.4,0C65.7,39.3,65.5,39.3,65.3,39.3z"/>
	<path class="st1" d="M30.4,46.1c6.6-4.2,13.8-6.3,21.1-6.3c1.4,0,2.8,0.1,4.2,0.2l4.6-1.1c1-0.2,3-0.6,5.5-0.6
		c1.5,0,3.3,0.2,5.1,0.6c-3-4.6-11-14.1-26.3-12c-18.8,2.7-22,21.3-21.9,26c2.7-2.4,5.4-4.4,8.2-6.1L30.4,46.1z"/>
</g>
<path class="st0" d="M54.4,24.2l0.2-10.7l-2.7,10.8C52.5,24.2,53.5,24.1,54.4,24.2z"/>
</svg>
