<?xml version="1.0" encoding="utf-8"?>
<!-- Generator: Adobe Illustrator 24.3.0, SVG Export Plug-In . SVG Version: 6.00 Build 0)  -->
<svg version="1.1" id="Layer_1" xmlns="http://www.w3.org/2000/svg" xmlns:xlink="http://www.w3.org/1999/xlink" x="0px" y="0px"
	 viewBox="0 0 102.3 66" style="enable-background:new 0 0 102.3 66;" xml:space="preserve">
<style type="text/css">
	.st0{fill:none;stroke:#FFFFFF;stroke-width:0.7267;stroke-miterlimit:22.9256;}
	.st1{fill-rule:evenodd;clip-rule:evenodd;fill:#FFCC07;}
	.st2{fill:none;stroke:#FFFFFF;stroke-width:0.763;stroke-miterlimit:22.9256;}
	.st3{fill:none;stroke:#FFFFFF;stroke-width:0.7304;stroke-miterlimit:22.9256;}
	.st4{clip-path:url(#SVGID_2_);}
	.st5{clip-path:url(#SVGID_4_);}
	.st6{fill-rule:evenodd;clip-rule:evenodd;fill:#3EAB37;}
	.st7{fill-rule:evenodd;clip-rule:evenodd;fill:#F07E07;}
	.st8{fill-rule:evenodd;clip-rule:evenodd;fill:#009741;}
	.st9{fill-rule:evenodd;clip-rule:evenodd;fill:#E20E18;}
	.st10{fill-rule:evenodd;clip-rule:evenodd;fill:#020203;}
</style>
<g>
	<polygon class="st0" points="45.1,3.1 49.1,24.6 44.2,24.9 	"/>
	<polygon class="st1" points="45.1,3.1 49.1,24.6 44.2,24.9 	"/>
	<polygon class="st0" points="25.7,9.3 38.5,26.8 34.3,29.3 	"/>
	<polygon class="st1" points="25.7,9.3 38.5,26.8 34.3,29.3 	"/>
	<polygon class="st0" points="12,22.1 30.2,34.1 27,37.9 	"/>
	<polygon class="st1" points="12,22.1 30.2,34.1 27,37.9 	"/>
	<polygon class="st0" points="83.6,15.5 67.4,30.1 71.2,33.4 	"/>
	<polygon class="st1" points="83.6,15.5 67.4,30.1 71.2,33.4 	"/>
	<polygon class="st0" points="64.8,4.8 57.5,25.3 62.3,26.5 	"/>
	<polygon class="st1" points="64.8,4.8 57.5,25.3 62.3,26.5 	"/>
	<polygon class="st0" points="3.8,37.3 24.9,42.5 23.2,47.2 	"/>
	<polygon class="st1" points="3.8,37.3 24.9,42.5 23.2,47.2 	"/>
	<polygon class="st0" points="94.8,29.4 74.6,37.7 77,42.1 	"/>
	<polygon class="st1" points="94.8,29.4 74.6,37.7 77,42.1 	"/>
	<polygon class="st2" points="84.8,27.6 72.9,34 74.7,36.5 	"/>
	<polygon class="st1" points="84.8,27.6 72.9,34 74.7,36.5 	"/>
	<polygon class="st2" points="72.1,17.6 63.1,27.6 65.6,29.4 	"/>
	<polygon class="st1" points="72.1,17.6 63.1,27.6 65.6,29.4 	"/>
	<polygon class="st2" points="54.6,13.5 51.3,26.5 54.3,26.9 	"/>
	<polygon class="st1" points="54.6,13.5 51.3,26.5 54.3,26.9 	"/>
	<polygon class="st2" points="38.4,15.6 41.3,28.8 44.2,27.8 	"/>
	<polygon class="st1" points="38.4,15.6 41.3,28.8 44.2,27.8 	"/>
	<polygon class="st2" points="25.6,23.7 32.6,35.2 35.1,33.2 	"/>
	<polygon class="st1" points="25.6,23.7 32.6,35.2 35.1,33.2 	"/>
	<polygon class="st2" points="14.9,34.7 26.3,41.9 27.6,39.1 	"/>
	<polygon class="st1" points="14.9,34.7 26.3,41.9 27.6,39.1 	"/>
	<polygon class="st2" points="11.3,45.8 23.6,51.3 24.5,48.3 	"/>
	<polygon class="st1" points="11.3,45.8 23.6,51.2 24.5,48.3 	"/>
	<polygon class="st2" points="90.7,40.6 78.4,46 77.5,43.1 	"/>
	<polygon class="st1" points="90.7,40.6 78.4,46 77.5,43.1 	"/>
	<path class="st3" d="M78.8,43.7c0,0,2,5,2.3,6.8c0.2,1.7-16.6-4.8-19.7-6.5c-3.1-1.6-18.3-9.5-39.8,10.5c0,0,0.4-25.6,24.2-29.4
		C69.6,21.2,78.8,43.7,78.8,43.7z"/>
	<g>
		<g>
			<defs>
				<path id="SVGID_1_" d="M78.8,43.7c0,0,2,5,2.3,6.8c0.2,1.7-16.6-4.8-19.7-6.5c-3.1-1.6-18.3-9.5-39.8,10.5
					c0,0,0.4-25.6,24.2-29.4C69.6,21.2,78.8,43.7,78.8,43.7"/>
			</defs>
			<clipPath id="SVGID_2_">
				<use xlink:href="#SVGID_1_"  style="overflow:visible;"/>
			</clipPath>
			<g class="st4">
				<g>
					<g>
						<defs>
							<rect id="SVGID_3_" x="21.6" y="21.2" width="59.8" height="33.2"/>
						</defs>
						<clipPath id="SVGID_4_">
							<use xlink:href="#SVGID_3_"  style="overflow:visible;"/>
						</clipPath>
						<g class="st5">
							
								<image style="overflow:visible;enable-background:new    ;" width="625" height="350" xlink:href="../../../../../A67C02A.jpg"  transform="matrix(9.569232e-02 0 0 9.569232e-02 21.5368 21.086)">
							</image>
						</g>
					</g>
				</g>
			</g>
		</g>
	</g>
	<path class="st3" d="M78.5,49.9C69.6,40.6,58.9,40,58.9,40c1.7-0.8,13.1-3.5,19.5,4.2c6.3,7.7,17.3,10.5,17.3,10.5
		s-15.9,5.6-34.4-8.6c-7.5-5.7-12.4-5-18.3-3.7c-11.6,2.5-21.3,12-21.3,12S44.4,26.1,78.5,49.9z"/>
	<path class="st6" d="M78.5,49.9C69.6,40.6,58.9,40,58.9,40c1.7-0.8,13.1-3.5,19.5,4.2c6.3,7.7,17.3,10.5,17.3,10.5
		s-15.9,5.6-34.4-8.6c-7.5-5.7-12.4-5-18.3-3.7c-11.6,2.5-21.3,12-21.3,12S44.4,26.1,78.5,49.9"/>
	<path class="st3" d="M61.2,55.3c-4.6-6.3-11.1-7.5-11.1-7.5c1-0.4,8.2-1,11.4,4.1c3.3,5.2,9.6,7.7,9.6,7.7s-10,2.1-20.1-8
		c-4-4-7.1-4-10.8-3.7c-7.2,0.6-13.9,5.6-13.9,5.6S42.4,38.1,61.2,55.3z"/>
	<path class="st6" d="M61.2,55.3c-4.6-6.3-11.1-7.5-11.1-7.5c1-0.4,8.2-1,11.4,4.1c3.3,5.2,9.6,7.7,9.6,7.7s-10,2.1-20.1-8
		c-4-4-7.1-4-10.8-3.7c-7.2,0.6-13.9,5.6-13.9,5.6S42.4,38.1,61.2,55.3"/>
	<path class="st3" d="M79,44.2c0,0-3-4.1-7.4-4.8c-0.2,0-8-15.5-27.1-12.8C25.6,29.3,22,48.4,22.4,53.5l-0.8,0.9
		c0,0-0.4-25.3,22.8-30.3C67.6,19.1,79.1,39.4,79,44.2z"/>
	<path class="st7" d="M79,44.2c0,0-3-4.1-7.4-4.8c-0.2,0-8-15.5-27.1-12.8C25.6,29.3,22,48.4,22.4,53.5l-0.8,0.9
		c0,0-0.4-25.3,22.8-30.3C67.6,19.1,79.1,39.4,79,44.2"/>
	<path class="st8" d="M33.2,54.7L33.2,54.7C33.2,54.7,33.2,54.7,33.2,54.7C33.2,54.7,33.2,54.7,33.2,54.7h-0.1
		c-0.5,0-0.8-0.1-1.1-0.3c-0.2-0.2-0.4-0.6-0.4-1.1h1.7c0,0,0,0.1,0,0.2c0,0.2,0,0.3,0,0.5c0,0.2,0,0.4,0,0.5
		C33.2,54.6,33.2,54.7,33.2,54.7 M33.2,60.1c0,0.4-0.1,0.7-0.4,0.9s-0.6,0.4-1.1,0.4h0c0,0-0.1,0-0.1,0v-6.1h1.7L33.2,60.1
		L33.2,60.1z M28.8,60.1c0,0,0,0,0,0.2c0,0.2-0.1,0.3-0.2,0.5c-0.1,0.1-0.3,0.3-0.5,0.4c-0.2,0.1-0.5,0.2-0.9,0.2v-4.8
		c0,0,0,0,0-0.2c0-0.1,0.1-0.2,0.2-0.4c0.1-0.2,0.3-0.3,0.5-0.4c0.2-0.2,0.5-0.2,0.9-0.2v0.9c0,0,0,0,0-0.2c0-0.1,0.1-0.2,0.2-0.4
		c0.1-0.1,0.2-0.2,0.4-0.4c0.1,0,0.3-0.1,0.5-0.1c0.1,0,0.2,0,0.4,0c0.1,0,0.3,0.1,0.4,0.2c0,0,0,0,0,0.2c0,0.2,0,0.4,0,0.6
		s0,0.4,0,0.6c0,0.2,0,0.3,0,0.4c-0.1-0.1-0.2-0.2-0.4-0.2C30.3,57,30.1,57,30,57c-0.2,0-0.4,0-0.5,0.2c-0.2,0.1-0.4,0.2-0.5,0.4
		c0,0-0.1,0.1-0.2,0.2c0,0,0,0.1,0,0.2V60.1z M22,60.4c0-0.2,0-0.4,0.2-0.5s0.3-0.3,0.6-0.4c0,0,0.1,0,0.2,0c0.1,0,0.2,0,0.2-0.1
		c-0.5,0-1-0.2-1.5-0.5c-0.4-0.2-0.6-0.8-0.6-1.5c0-1,0.4-1.6,1.2-1.7c0.8-0.2,1.6-0.3,2.5-0.3c0,0,0,0,0,0c0,0,0,0,0.1,0h0v0
		c0,0,0,0,0,0c0,0.3,0,0.5-0.2,0.8c-0.2,0.3-0.4,0.4-0.6,0.4h0c0,0,0,0,0,0c0,0,0,0-0.1,0c0,0-0.1,0-0.2,0s0,0-0.1,0c0,0,0,0,0,0
		c-0.2,0-0.4,0-0.5,0.2c-0.2,0-0.2,0.3-0.2,0.6c0,0.2,0,0.4,0.2,0.5c0.2,0.1,0.4,0.2,0.6,0.2c0,0,0.1,0,0.2,0c0.1,0,0.2,0,0.2,0
		c0,0,0,0,0,0c0,0,0,0,0,0c0.4,0,0.6-0.1,0.9-0.2c0.3-0.1,0.5-0.4,0.6-0.8c0,0,0,0.1,0,0.2c0,0,0,0.1,0,0.2c0,0.6-0.1,1-0.3,1.3
		c-0.2,0.2-0.4,0.4-0.6,0.5c-0.1,0-0.2,0.1-0.2,0.1c-0.1,0-0.2,0-0.2,0c-0.1,0-0.2,0.1-0.3,0.2c0,0-0.1,0.1-0.1,0.2c0,0,0,0,0,0.1
		l0,0c0.1,0,0.2,0.1,0.4,0.2c0.2,0,0.4,0.1,0.5,0.2c0.3,0.2,0.5,0.4,0.8,0.6c0.2,0.3,0.4,0.7,0.4,1.3c0,0.7-0.3,1.2-0.8,1.6
		c-0.6,0.4-1.2,0.5-1.9,0.5c0,0,0,0,0,0c-0.1,0-0.2,0-0.3,0c0,0-0.2,0-0.2,0c-0.5,0-0.9-0.2-1.2-0.4c-0.4-0.2-0.6-0.5-0.6-1v0
		c0,0,0,0,0,0c0-0.4,0.2-0.8,0.6-1c0.3-0.3,0.7-0.4,1.1-0.4h0c0,0.1-0.1,0.2-0.2,0.3c0,0,0,0.2,0,0.3c0,0,0,0,0,0.1c0,0,0,0.1,0,0.2
		c0,0.2,0,0.4,0.2,0.5c0.2,0.2,0.4,0.2,0.8,0.2c0.4,0,0.7,0,0.8-0.2c0.1-0.2,0.2-0.4,0.2-0.5c0,0,0,0,0,0s0,0,0,0c0,0,0,0,0,0v0
		c0-0.3-0.1-0.5-0.4-0.6c-0.2-0.2-0.5-0.2-0.8-0.3h0c-0.3-0.1-0.6-0.2-0.8-0.4C22.1,60.9,22,60.7,22,60.4L22,60.4L22,60.4z
		 M17.1,54.9l-1,3.3h2L17.1,54.9z M15.6,59.7l-0.6,1.7c-0.4-0.1-0.6-0.2-0.8-0.5c-0.2-0.2-0.3-0.5-0.3-0.8c0-0.1,0-0.2,0-0.2
		c0-0.1,0-0.2,0-0.2c0-0.1,0-0.2,0-0.4c0-0.1,0-0.2,0-0.3c0,0,0.1-0.3,0.4-0.9c0.2-0.5,0.4-1.2,0.6-1.9c0.2-0.6,0.5-1.3,0.6-1.8
		c0.2-0.6,0.4-0.8,0.4-0.9c0,0,0,0,0-0.2c0-0.2,0.2-0.4,0.3-0.6c0.2-0.2,0.4-0.4,0.6-0.6c0.3-0.2,0.6-0.3,1.1-0.3l2.5,7.1
		c0,0.2,0.1,0.3,0.1,0.5c0,0.2,0,0.4,0,0.5c0,0.4-0.1,0.6-0.3,0.9c-0.2,0.3-0.6,0.5-1,0.6l-0.6-1.7H15.6z"/>
	<path class="st9" d="M49.9,58.2l-1.3-2.7c0,0,0,0,0.1,0c0,0,0,0,0,0c0.1,0,0.2-0.1,0.4-0.2c0.1,0,0.2,0,0.4,0c0,0,0,0,0,0
		c0,0,0,0,0,0c0.3,0,0.5,0.2,0.7,0.4c0.1,0.2,0.2,0.5,0.4,0.8c0,0,0,0.2,0.1,0.2c0,0.1,0,0.2,0.1,0.3c0,0,0,0,0,0c0,0,0,0,0,0
		l1.3-1.9c0.2,0.2,0.4,0.4,0.5,0.6c0.1,0.2,0.2,0.4,0.2,0.6c0,0,0,0,0,0c0,0.1,0,0.3-0.1,0.4c0,0.2-0.1,0.4-0.2,0.5
		c0,0,0,0.1-0.1,0.2c0,0,0,0.1-0.1,0.2c-0.1,0.2-0.2,0.3-0.4,0.5c0,0.1-0.2,0.2-0.2,0.3c0,0,0.1,0.2,0.2,0.5
		c0.1,0.2,0.2,0.5,0.4,0.8c0,0,0,0,0,0c0.2,0.3,0.3,0.6,0.5,0.9c0.1,0.3,0.2,0.4,0.2,0.4c0,0-0.1,0.1-0.2,0.2c0,0-0.1,0.1-0.2,0.2
		c-0.1,0-0.2,0.1-0.3,0.1c0,0-0.2,0-0.3,0c0,0,0,0-0.1,0c0,0-0.1,0-0.1,0c-0.2,0-0.4-0.2-0.5-0.5c-0.2-0.2-0.3-0.5-0.4-0.8
		c0,0,0,0,0,0c0,0,0,0,0,0c0-0.1,0-0.2,0-0.2c0-0.1,0-0.2-0.1-0.2l-1.1,1.9c-0.2-0.1-0.4-0.2-0.6-0.4c-0.1-0.1-0.2-0.4-0.3-0.6v0
		c0,0,0,0,0,0c0,0,0,0,0,0c0,0,0,0,0-0.1c0-0.2,0-0.5,0.2-0.8c0.2-0.2,0.4-0.5,0.5-0.7c0.1-0.1,0.2-0.2,0.2-0.3
		C49.8,58.4,49.8,58.3,49.9,58.2 M44.9,57.9h1.6v0v0v0c0,0,0,0,0,0c0-0.2,0-0.5-0.2-0.6c-0.1-0.2-0.3-0.3-0.6-0.3
		c-0.2,0-0.4,0-0.5,0.2c-0.1,0.2-0.2,0.4-0.2,0.6v0v0C44.9,57.8,44.9,57.8,44.9,57.9L44.9,57.9z M45.9,60c0,0,0.2,0,0.3,0
		c0,0,0.2,0,0.3,0c0,0,0.1,0,0.2,0c0,0,0.1,0,0.2,0c0.2,0,0.4-0.1,0.6-0.2c0.2-0.1,0.4-0.2,0.5-0.5c0,0,0,0,0,0.1c0,0,0,0,0,0
		c0,0,0,0,0,0v0c0,0.5-0.2,0.9-0.6,1.3c-0.4,0.4-0.9,0.6-1.4,0.6c-1,0-1.7-0.4-2.2-0.9c-0.4-0.6-0.6-1.5-0.6-2.5
		c0-0.8,0.2-1.5,0.6-2.1c0.4-0.6,1-0.9,1.9-0.9c1,0,1.7,0.4,2,1c0.4,0.7,0.5,1.5,0.6,2.3c0,0,0,0.2,0,0.2c0,0,0,0.1,0,0.2h-3.3
		c0,0.4,0.1,0.6,0.2,0.8C45.3,59.8,45.5,59.9,45.9,60z M42.1,52.6v8.8c-0.4,0-0.6,0-0.9-0.2c-0.2-0.1-0.4-0.3-0.5-0.4
		c-0.1-0.2-0.2-0.3-0.3-0.5c0-0.1,0-0.2,0-0.2s0-0.5,0-1.4s0-2,0-3.1c0-1,0-2,0-2.9s0-1.4,0-1.6c0.5,0,0.8,0,1,0.2
		c0.2,0.1,0.4,0.3,0.5,0.5c0,0.1,0.1,0.2,0.1,0.4C42.1,52.4,42.1,52.5,42.1,52.6C42.1,52.6,42.1,52.6,42.1,52.6
		C42.1,52.6,42.1,52.6,42.1,52.6z M36.9,59.9L36.9,59.9C36.9,59.9,36.9,59.9,36.9,59.9c0.3,0,0.6-0.2,0.7-0.4c0.1-0.3,0.2-0.6,0.2-1
		c0,0,0,0,0-0.1c0,0,0,0,0,0c0-0.5,0-0.9-0.2-1.2c0-0.3-0.3-0.4-0.6-0.4h0c-0.4,0-0.5,0.2-0.6,0.5c0,0.3-0.1,0.7-0.1,1.2
		s0,0.9,0.1,1.2C36.4,59.7,36.6,59.9,36.9,59.9z M34.3,55.3L34.3,55.3L34.3,55.3c0.3,0,0.6,0,0.7,0.1c0.2,0,0.4,0.2,0.5,0.2
		c0.1,0.1,0.2,0.2,0.2,0.3c0,0.1,0,0.2,0,0.2s0,0,0-0.2c0,0,0.2-0.2,0.3-0.3c0.1-0.1,0.2-0.2,0.5-0.3c0.2,0,0.5-0.1,0.8-0.1
		c0,0,0.1,0,0.2,0c0,0,0,0,0.1,0c0.4,0.1,0.8,0.4,1.1,0.8c0.4,0.4,0.5,0.8,0.6,1.3v0v2c0,0,0,0.1,0,0.2c0,0,0,0.1,0,0.2
		c0,0.4-0.3,0.8-0.6,1.2c-0.4,0.4-0.7,0.5-1,0.5s-0.6,0-0.8-0.1c-0.2,0-0.4-0.2-0.6-0.4c0,0,0,0-0.1,0c0,0,0-0.1-0.1-0.1v3.9
		c-0.5,0-0.8,0-1.1-0.2c-0.2-0.1-0.4-0.3-0.5-0.5c0,0-0.1-0.2-0.1-0.2c0,0,0-0.2,0-0.2c0,0,0-0.2,0-0.5c0-0.4,0-0.8,0-1.3
		c0-0.4,0-0.7,0-1.1s0-0.8,0-1.2c0-0.9,0-1.7,0-2.5C34.3,56,34.3,55.5,34.3,55.3z"/>
	<path class="st10" d="M61.1,60.5c0,0.1,0,0.1,0.1,0.2c0,0,0,0,0.1,0c0.1,0,0.2,0,0.2,0c0,0,0.1,0,0.1-0.2v-0.6c0,0,0-0.1-0.1-0.2
		c0,0,0,0-0.2,0c0,0-0.1,0-0.2,0c0,0,0,0.1,0,0.2L61.1,60.5L61.1,60.5z M62.2,59.9v0.6c0,0.2-0.1,0.4-0.3,0.5
		c-0.2,0.2-0.4,0.2-0.6,0.2c-0.2,0-0.4,0-0.5-0.2c-0.2-0.1-0.3-0.3-0.3-0.5v-0.6c0-0.2,0.1-0.4,0.3-0.5c0.2-0.2,0.4-0.2,0.6-0.2
		c0.2,0,0.4,0,0.5,0.2C62.1,59.5,62.2,59.7,62.2,59.9z M59.7,60.8C59.7,60.8,59.7,60.8,59.7,60.8c0,0.1,0,0.2-0.1,0.2
		c0,0,0,0-0.2,0.1c0,0-0.2,0-0.3,0v-1.5c0,0,0,0,0,0s0-0.1,0-0.2c0,0,0.1,0,0.2-0.1c0.1,0,0.2,0,0.4,0v0.3c0,0,0,0,0,0
		c0,0,0,0,0.1-0.1c0,0,0,0,0.1-0.1c0,0,0.1,0,0.2,0c0,0,0,0,0.1,0c0,0,0.1,0,0.2,0c0,0,0,0,0,0.1c0,0,0,0.1,0,0.2c0,0,0,0.1,0,0.2
		c0,0,0,0.1,0,0.1c0,0-0.1,0-0.2,0c0,0,0,0-0.1,0c0,0-0.1,0-0.2,0c0,0-0.1,0-0.2,0.1c0,0,0,0,0,0c0,0,0,0,0,0L59.7,60.8L59.7,60.8z
		 M57.4,60.8c0,0,0-0.1,0-0.2c0,0,0.1,0,0.2-0.1c0,0,0,0,0,0c0,0,0,0,0,0c-0.2,0-0.4,0-0.5-0.1c-0.2-0.1-0.2-0.3-0.2-0.5
		c0-0.3,0.1-0.5,0.4-0.6c0.2,0,0.5,0,0.8,0c0,0,0,0,0,0h0c0,0.1,0,0.2,0,0.3c0,0-0.1,0.1-0.2,0.1c0,0,0,0,0,0s0,0,0,0c0,0,0,0,0,0
		c0,0-0.2,0-0.2,0c0,0,0,0.1,0,0.2v0c0,0,0,0.1,0.1,0.1c0,0,0.1,0,0.2,0h0h0c0,0,0,0,0,0c0.1,0,0.2,0,0.3,0c0.1,0,0.2-0.1,0.2-0.2v0
		v0c0,0.2,0,0.4,0,0.4c0,0.1-0.1,0.2-0.2,0.2c0,0,0,0,0,0c0,0,0,0,0,0c0,0-0.1,0-0.1,0c0,0,0,0,0,0.1c0,0,0,0,0,0v0c0,0,0,0,0.1,0
		c0,0,0.1,0,0.2,0c0,0,0.2,0.1,0.2,0.2c0,0,0.1,0.2,0.1,0.4c0,0.2-0.1,0.4-0.3,0.5c-0.2,0.1-0.4,0.2-0.6,0.2c0,0,0,0,0,0
		c0,0,0,0,0,0c0,0,0,0-0.1,0c-0.1,0-0.2-0.1-0.4-0.2c-0.1,0-0.2-0.2-0.2-0.3c0,0,0,0,0,0c0-0.1,0-0.2,0.2-0.4c0.1,0,0.2-0.1,0.4-0.1
		c0,0,0,0,0,0.1v0c0,0,0,0,0,0c0,0,0,0,0,0c0,0,0,0.1,0.1,0.2c0,0,0.1,0,0.2,0s0.2,0,0.3,0c0,0,0-0.1,0-0.2c0,0,0,0,0,0c0,0,0,0,0,0
		c0-0.1,0-0.2-0.1-0.2c0,0-0.2,0-0.3,0c-0.1,0-0.2,0-0.3-0.1C57.5,61,57.4,60.9,57.4,60.8z M55.8,59.1l-0.3,1.1h0.7L55.8,59.1z
		 M55.3,60.7l-0.2,0.6c-0.1,0-0.2-0.1-0.3-0.2c0-0.1,0-0.2-0.1-0.3v0v0c0,0,0-0.1,0-0.1c0,0,0,0,0-0.1c0,0,0,0,0-0.3
		c0.1-0.2,0.2-0.4,0.2-0.6c0.1-0.2,0.2-0.4,0.2-0.6c0-0.2,0.1-0.2,0.1-0.2s0,0,0-0.1c0,0,0-0.1,0.1-0.2c0,0,0.1-0.1,0.2-0.2
		c0,0,0.2-0.1,0.4-0.1l0.9,2.3c0,0,0,0.1,0,0.2c0,0,0,0.1,0,0.1c0,0.1,0,0.2-0.1,0.3c0,0.1-0.2,0.2-0.4,0.2l-0.2-0.5L55.3,60.7
		L55.3,60.7z"/>
	<path class="st10" d="M88.6,14.6V9.5h1.6L91,13l0.9-3.5h1.6v5.1h-1v-4l-1,4h-1l-1-4v4H88.6z M85.4,14.6v-4.1h-1.5V9.5h4v0.9h-1.5
		v4.2L85.4,14.6L85.4,14.6z"/>
</g>
</svg>
